<?xml version="1.0" encoding="utf-8"?>
<!-- Generator: Adobe Illustrator 18.0.0, SVG Export Plug-In . SVG Version: 6.00 Build 0)  -->
<!DOCTYPE svg PUBLIC "-//W3C//DTD SVG 1.1//EN" "http://www.w3.org/Graphics/SVG/1.1/DTD/svg11.dtd">
<svg version="1.1" id="Camada_1" xmlns="http://www.w3.org/2000/svg" xmlns:xlink="http://www.w3.org/1999/xlink" x="0px" y="0px"
	 viewBox="-375 -375 1000 1000" enable-background="new -375 -375 1000 1000" xml:space="preserve">
<g>
	<path fill="#FFFFFF" d="M11.2-88.3h-70.4v-70.4c0-7.8-6.4-14.2-14.2-14.2s-14.2,6.4-14.2,14.2v70.4h-71.1
		c-7.8,0-14.2,6.4-14.2,14.2s6.4,14.2,14.2,14.2h70.4v70.4c0,7.8,6.4,14.2,14.2,14.2s14.2-6.4,14.2-14.2v-70.4h70.4
		c7.8,0,14.2-6.4,14.2-14.2C25.5-81.2,19.1-88.3,11.2-88.3L11.2-88.3z"/>
	<path fill="#FFFFFF" d="M408.7-88.3H238.8c-7.8,0-14.2,6.4-14.2,14.2s6.4,14.2,14.2,14.2h169.9c7.8,0,14.2-6.4,14.2-14.2
		C422.2-81.2,415.8-88.3,408.7-88.3L408.7-88.3z"/>
	<path fill="#FFFFFF" d="M139.2-286H-286v822h822v-822H139.2z M-258.2-258.2h368.3v368.3h-368.3V-258.2z M-258.2,508.2V139.9h368.3
		v368.3H-258.2L-258.2,508.2z M508.2,508.2H139.9V139.9h368.3V508.2L508.2,508.2z M139.2,110.8v-369h368.3v368.3H139.2V110.8z"/>
	<path fill="#FFFFFF" d="M238.8,379.6h169.9c7.8,0,14.2-6.4,14.2-14.2s-6.4-14.2-14.2-14.2H238.8c-7.8,0-14.2,6.4-14.2,14.2
		C224.5,374.6,230.9,379.6,238.8,379.6L238.8,379.6z"/>
	<path fill="#FFFFFF" d="M238.8,294.9h169.9c7.8,0,14.2-6.4,14.2-14.2c0-7.8-6.4-14.2-14.2-14.2H238.8c-7.8,0-14.2,6.4-14.2,14.2
		C224.5,288.5,230.9,294.9,238.8,294.9L238.8,294.9z"/>
	<path fill="#FFFFFF" d="M7,243c-5.7-5.7-14.9-5.7-20.6,0l-61.1,61.1L-136,243c-5.7-5.7-14.9-5.7-20.6,0s-5.7,14.9,0,20.6l61.1,61.1
		l-61.1,61.1c-5.7,5.7-5.7,14.9,0,20.6c3.6,3.6,6.4,4.3,10,4.3s7.8-1.4,10-4.3l61.1-61.1l61.1,61.1c3.6,3.6,6.4,4.3,10,4.3
		s7.8-1.4,10-4.3c5.7-5.7,5.7-14.9,0-20.6l-61.1-61.1l61.1-61.1C12.7,256.5,12.7,248,7,243L7,243z"/>
</g>
</svg>
