<?xml version="1.0" encoding="utf-8"?>
<!-- Generator: Adobe Illustrator 18.0.0, SVG Export Plug-In . SVG Version: 6.00 Build 0)  -->
<!DOCTYPE svg PUBLIC "-//W3C//DTD SVG 1.1//EN" "http://www.w3.org/Graphics/SVG/1.1/DTD/svg11.dtd">
<svg version="1.1" id="Camada_1" xmlns="http://www.w3.org/2000/svg" xmlns:xlink="http://www.w3.org/1999/xlink" x="0px" y="0px"
	 viewBox="-375 -375 1000 1000" enable-background="new -375 -375 1000 1000" xml:space="preserve">
<g transform="translate(-1 -1)">
	<path fill="#FFFFFF" d="M365.8,537.7c21.9,0,43.2-2.8,64.4-8.5c24.8-7.1,45.3-22.6,58-44.6l41.7-69.3c13.4-21.9,7.1-50.9-14.9-65.1
		L348.8,239.1c-21.2-14.2-49.5-9.2-65.1,10.6L234.9,312c-6.4,8.5-17.7,10.6-26.9,5.7l-9.2-5c-30.4-17-68.6-37.5-145.8-113.9
		C-23.3,122.4-44.6,84.2-60.8,53l-5-9.2c-5-9.2-2.8-20.5,5.7-26.9L2.1-31.9C21.9-47.5,26.9-75.8,12.7-97L-97.6-264
		c-14.2-21.2-43.2-28.3-65.1-14.9l-69.3,41.7c-21.9,12.7-38.2,34-44.6,58C-301.4-87.8-283,70-50.2,302.8
		C133.7,487.5,271.7,537.7,365.8,537.7z M-250.5-171.3c5-17.7,17-32.5,32.5-41.7l69.3-41.7c9.9-5.7,21.9-2.8,28.3,6.4l60.1,90.6
		l50.9,75.7c6.4,9.2,4.2,21.2-4.2,28.3L-75.7-5C-94.8,9.9-99.8,36-88.4,56.6l5,9.2c17.7,31.8,39.6,72.2,118.9,151.4
		S155,318.4,186.8,336.1l9.2,5c20.5,12,47.4,6.4,61.6-12.7l48.8-62.3c7.1-8.5,19.1-10.6,28.3-4.2L501,372.8
		c9.2,6.4,12,18.4,6.4,28.3l-41.7,69.3c-9.2,15.6-24.1,27.6-41.7,32.5c-84.2,23.3-232.1,4.2-455-219.3S-273.8-87.1-250.5-171.3z"/>
	<path fill="#FFFFFF" d="M181.1-148.6c128.8,0,232.8,104.7,233.5,233.5c0,7.8,6.4,13.4,13.4,13.4c7.8,0,13.4-6.4,13.4-13.4
		c0-143.6-116.7-260.4-260.4-260.4c-7.8,0-13.4,6.4-13.4,13.4C167.7-155,173.4-148.6,181.1-148.6z"/>
	<path fill="#FFFFFF" d="M181.1-65.8c83.5,0,150.7,67.9,150.7,150.7c0,7.8,6.4,13.4,13.4,13.4s13.4-6.4,13.4-13.4
		c0-98.4-80-178.3-178.3-178.3c-7.8,0-13.4,6.4-13.4,13.4S173.4-65.8,181.1-65.8z"/>
	<path fill="#FFFFFF" d="M181.1,16.2c38.2,0,68.6,30.4,68.6,68.6c0,7.8,6.4,13.4,13.4,13.4s13.4-6.4,13.4-13.4
		c0-53.1-43.2-96.2-96.2-96.2C172.6-11.4,167-5,167,2.1C167,9.9,173.4,16.2,181.1,16.2z"/>
</g>
</svg>
